<svg width="770" height="455" viewBox="0 0 770 455" fill="none" xmlns="http://www.w3.org/2000/svg">
  <rect x="86" y="260" width="203" height="65" rx="32.5" fill="#E86F00"/>
  <rect x="159" y="390" width="130" height="65" rx="32.5" fill="#E86F00"/>
  <rect width="94" height="65" rx="32.5" transform="matrix(-1 0 0 1 159 130)" fill="#E86F00"/>
  <rect width="65" height="65" rx="32.5" transform="matrix(-1 0 0 1 112 390)" fill="#E86F00"/>
  <rect x="202" y="130" width="87" height="65" rx="32.5" fill="#E86F00"/>
  <path d="M0 32.5C0 14.5507 14.5507 0 32.5 0L459 1C459 13.5 459 14.5507 459 32.5C459 50.4493 459 45 459 65H32.5C14.5508 65 0 50.4493 0 32.5Z" fill="#E86F00"/>
  <path d="M254.574 1C264.177 3.19125 279.5 10.1841 279.5 32.5C279.5 65 247 65 247 65C247 65 279.5 65 279.5 97.5C279.5 130 247 130 247 130C247 130 279.5 130 279.5 162.5C279.5 195 247 195 247 195C247 195 279.5 195 279.5 227.5C279.5 260 247 260 247 260C247 260 279.5 260 279.5 292.5C279.5 325 247 325 247 325C247 325 279.5 325 279.5 357.5C279.5 390 247 390 247 390C247 390 279.5 390 279.5 422.5C279.5 444.816 264.177 451.809 254.574 454H459V1H254.574Z" fill="#E86F00"/>
  <rect x="420" width="77" height="455" rx="38.5" fill="#E86F00"/>
  <rect x="693" width="77" height="455" rx="38.5" fill="#E86F00"/>
  <rect x="521" width="77" height="455" rx="38.5" fill="#E86F00"/>
  <rect x="521" y="77" width="77" height="249" rx="38.5" transform="rotate(-90 521 77)" fill="#E86F00"/>
  <rect x="521" y="260" width="77" height="249" rx="38.5" transform="rotate(-90 521 260)" fill="#E86F00"/>
</svg>
